<svg xmlns="http://www.w3.org/2000/svg" xml:space="preserve" width="64.1" height="64.1" x="0" y="0" viewBox="0 0 64.1 64.1"><style id="style2" type="text/css">.st0{fill:#f39200}</style><g id="g18" transform="translate(-1.55 -5.5)"><path id="path4" d="M60.3 10.8v.2H12c1.7-1.7 1.1-4.4-1.2-5.4v-.1ZM12 69.6h-.2L6.9 9.4H7c.8 2.3 3.1 2.9 5 1.6z" class="st0"/><path id="polygon6" d="M28.1 28.6h4.6v-5H25v2.5z" class="st0"/><path id="rect8" d="M28.5 30h4.9v6.7h-4.9z" class="st0"/><path id="path10" d="M19.7 41.5c0 .9.8 1.7 1.9 1.7h1.9v-3.1l3.5-2.9v-3.1h-7.3z" class="st0"/><path id="polygon12" d="M28.1 38.1 25 40.7v2.5h7.7v-5.1z" class="st0"/><path id="path14" d="M47.1 32.7h-7.3v-3.1l3.5-2.9v-3.1h1.9c1 0 1.9.8 1.9 1.7zm0 8.8c0 .9-.8 1.7-1.9 1.7h-1.9v-3.1l-3.5-2.9v-3.1h7.3zm-5.2 1.7h-7.7v-5.1h4.6l3 2.6v2.5zm-7.7-14.6v-5.1h7.7V26l-3 2.6zm24.4-10.3s-16.6.8-25.1-5.7V30h4.9v6.7h-4.9v32.8s1.6-1.1 4-3l5.1-4.5c7.2-6.7 16-17.1 16-27.6z" style="fill:#be1622"/><path id="path16" d="M21.6 23.6c-1 0-1.9.8-1.9 1.7v7.4H27v-3.1l-3.5-2.9v-3.1z" class="st0"/></g></svg>
